<mxfile host="app.diagrams.net" agent="Mozilla/5.0 (Windows NT 10.0; Win64; x64) AppleWebKit/537.36 (KHTML, like Gecko) Chrome/136.0.0.0 Safari/537.36" version="26.2.14">
  <diagram name="Page-1" id="ec0PnyET0IGt1z9h_bmW">
    <mxGraphModel dx="2276" dy="897" grid="1" gridSize="10" guides="1" tooltips="1" connect="1" arrows="1" fold="1" page="1" pageScale="1" pageWidth="850" pageHeight="1100" math="0" shadow="0">
      <root>
        <mxCell id="0" />
        <mxCell id="1" parent="0" />
        <mxCell id="f1oGqb4zI4XWdaLzHfpk-1" value="Φοιτητής" style="shape=umlActor;verticalLabelPosition=bottom;verticalAlign=top;html=1;outlineConnect=0;" parent="1" vertex="1">
          <mxGeometry y="240" width="30" height="60" as="geometry" />
        </mxCell>
        <mxCell id="f1oGqb4zI4XWdaLzHfpk-3" value="Χρήστης" style="shape=umlActor;verticalLabelPosition=bottom;verticalAlign=top;html=1;outlineConnect=0;" parent="1" vertex="1">
          <mxGeometry x="530" y="560" width="30" height="60" as="geometry" />
        </mxCell>
        <mxCell id="f1oGqb4zI4XWdaLzHfpk-4" value="Καθηγητής" style="shape=umlActor;verticalLabelPosition=bottom;verticalAlign=top;html=1;outlineConnect=0;" parent="1" vertex="1">
          <mxGeometry x="900" y="285" width="30" height="60" as="geometry" />
        </mxCell>
        <mxCell id="f1oGqb4zI4XWdaLzHfpk-7" value="Εταιρεία" style="shape=umlActor;verticalLabelPosition=bottom;verticalAlign=top;html=1;outlineConnect=0;" parent="1" vertex="1">
          <mxGeometry x="-20" y="840" width="30" height="60" as="geometry" />
        </mxCell>
        <mxCell id="f1oGqb4zI4XWdaLzHfpk-8" value="Μέλος Επιτροπής" style="shape=umlActor;verticalLabelPosition=bottom;verticalAlign=top;html=1;outlineConnect=0;" parent="1" vertex="1">
          <mxGeometry x="990" y="840" width="30" height="60" as="geometry" />
        </mxCell>
        <mxCell id="f1oGqb4zI4XWdaLzHfpk-10" value="" style="endArrow=classic;html=1;rounded=0;" parent="1" source="f1oGqb4zI4XWdaLzHfpk-3" target="f1oGqb4zI4XWdaLzHfpk-11" edge="1">
          <mxGeometry width="50" height="50" relative="1" as="geometry">
            <mxPoint x="260" y="630" as="sourcePoint" />
            <mxPoint x="200" y="550" as="targetPoint" />
          </mxGeometry>
        </mxCell>
        <mxCell id="f1oGqb4zI4XWdaLzHfpk-11" value="Σύνδεση Χρήστη" style="ellipse;whiteSpace=wrap;html=1;" parent="1" vertex="1">
          <mxGeometry x="240" y="540" width="100" height="70" as="geometry" />
        </mxCell>
        <mxCell id="f1oGqb4zI4XWdaLzHfpk-12" value="" style="endArrow=classic;html=1;rounded=0;entryX=1;entryY=0.5;entryDx=0;entryDy=0;" parent="1" target="f1oGqb4zI4XWdaLzHfpk-13" edge="1">
          <mxGeometry width="50" height="50" relative="1" as="geometry">
            <mxPoint x="520" y="590" as="sourcePoint" />
            <mxPoint x="210" y="620" as="targetPoint" />
          </mxGeometry>
        </mxCell>
        <mxCell id="f1oGqb4zI4XWdaLzHfpk-13" value="Δημιουργεία νέου χρήστη" style="ellipse;whiteSpace=wrap;html=1;" parent="1" vertex="1">
          <mxGeometry x="230" y="610" width="100" height="70" as="geometry" />
        </mxCell>
        <mxCell id="f1oGqb4zI4XWdaLzHfpk-14" value="" style="endArrow=block;dashed=1;endFill=0;endSize=12;html=1;rounded=0;entryX=0;entryY=0.5;entryDx=0;entryDy=0;" parent="1" source="f1oGqb4zI4XWdaLzHfpk-16" target="f1oGqb4zI4XWdaLzHfpk-11" edge="1">
          <mxGeometry width="160" relative="1" as="geometry">
            <mxPoint x="420" y="550" as="sourcePoint" />
            <mxPoint x="500" y="560" as="targetPoint" />
          </mxGeometry>
        </mxCell>
        <mxCell id="f1oGqb4zI4XWdaLzHfpk-15" value="&quot;extend&quot;" style="text;html=1;align=center;verticalAlign=middle;resizable=0;points=[];autosize=1;strokeColor=none;fillColor=none;" parent="1" vertex="1">
          <mxGeometry x="160" y="555" width="70" height="30" as="geometry" />
        </mxCell>
        <mxCell id="f1oGqb4zI4XWdaLzHfpk-16" value="Αποσύνδεση Χρήστη" style="ellipse;whiteSpace=wrap;html=1;" parent="1" vertex="1">
          <mxGeometry x="87.5" y="555" width="85" height="70" as="geometry" />
        </mxCell>
        <mxCell id="f1oGqb4zI4XWdaLzHfpk-17" value="" style="endArrow=block;endSize=16;endFill=0;html=1;rounded=0;" parent="1" source="f1oGqb4zI4XWdaLzHfpk-7" target="f1oGqb4zI4XWdaLzHfpk-3" edge="1">
          <mxGeometry width="160" relative="1" as="geometry">
            <mxPoint x="170" y="950" as="sourcePoint" />
            <mxPoint x="200" y="780" as="targetPoint" />
          </mxGeometry>
        </mxCell>
        <mxCell id="f1oGqb4zI4XWdaLzHfpk-18" value="" style="endArrow=block;endSize=16;endFill=0;html=1;rounded=0;" parent="1" source="f1oGqb4zI4XWdaLzHfpk-1" target="f1oGqb4zI4XWdaLzHfpk-3" edge="1">
          <mxGeometry width="160" relative="1" as="geometry">
            <mxPoint x="160" y="360" as="sourcePoint" />
            <mxPoint x="135" y="620" as="targetPoint" />
          </mxGeometry>
        </mxCell>
        <mxCell id="f1oGqb4zI4XWdaLzHfpk-20" value="" style="endArrow=block;endSize=16;endFill=0;html=1;rounded=0;" parent="1" source="f1oGqb4zI4XWdaLzHfpk-4" target="f1oGqb4zI4XWdaLzHfpk-3" edge="1">
          <mxGeometry width="160" relative="1" as="geometry">
            <mxPoint x="145" y="420" as="sourcePoint" />
            <mxPoint x="610" y="520" as="targetPoint" />
          </mxGeometry>
        </mxCell>
        <mxCell id="f1oGqb4zI4XWdaLzHfpk-21" value="Επεξεργασία προφίλ χρήστη" style="ellipse;whiteSpace=wrap;html=1;" parent="1" vertex="1">
          <mxGeometry x="80" y="690" width="100" height="70" as="geometry" />
        </mxCell>
        <mxCell id="f1oGqb4zI4XWdaLzHfpk-22" value="" style="endArrow=block;dashed=1;endFill=0;endSize=12;html=1;rounded=0;entryX=0.06;entryY=0.8;entryDx=0;entryDy=0;exitX=1;exitY=0;exitDx=0;exitDy=0;entryPerimeter=0;" parent="1" source="f1oGqb4zI4XWdaLzHfpk-21" target="f1oGqb4zI4XWdaLzHfpk-11" edge="1">
          <mxGeometry width="160" relative="1" as="geometry">
            <mxPoint x="150" y="558" as="sourcePoint" />
            <mxPoint x="210" y="555" as="targetPoint" />
          </mxGeometry>
        </mxCell>
        <mxCell id="f1oGqb4zI4XWdaLzHfpk-23" value="&quot;extend&quot;" style="text;html=1;align=center;verticalAlign=middle;resizable=0;points=[];autosize=1;strokeColor=none;fillColor=none;rotation=-45;" parent="1" vertex="1">
          <mxGeometry x="150" y="630" width="70" height="30" as="geometry" />
        </mxCell>
        <mxCell id="f1oGqb4zI4XWdaLzHfpk-26" value="" style="endArrow=classic;html=1;rounded=0;entryX=0.98;entryY=0.657;entryDx=0;entryDy=0;entryPerimeter=0;" parent="1" target="f1oGqb4zI4XWdaLzHfpk-21" edge="1">
          <mxGeometry width="50" height="50" relative="1" as="geometry">
            <mxPoint x="520" y="590" as="sourcePoint" />
            <mxPoint x="170" y="680" as="targetPoint" />
          </mxGeometry>
        </mxCell>
        <mxCell id="f1oGqb4zI4XWdaLzHfpk-30" value="" style="endArrow=classic;html=1;rounded=0;" parent="1" source="f1oGqb4zI4XWdaLzHfpk-7" target="f1oGqb4zI4XWdaLzHfpk-31" edge="1">
          <mxGeometry width="50" height="50" relative="1" as="geometry">
            <mxPoint x="280" y="830" as="sourcePoint" />
            <mxPoint x="360" y="810" as="targetPoint" />
          </mxGeometry>
        </mxCell>
        <mxCell id="f1oGqb4zI4XWdaLzHfpk-31" value="Ανάρτηση νέας θέσης πρακτικής άσκησης" style="ellipse;whiteSpace=wrap;html=1;" parent="1" vertex="1">
          <mxGeometry x="260" y="780" width="130" height="70" as="geometry" />
        </mxCell>
        <mxCell id="f1oGqb4zI4XWdaLzHfpk-32" value="" style="endArrow=block;dashed=1;endFill=0;endSize=12;html=1;rounded=0;entryX=0.962;entryY=0.6;entryDx=0;entryDy=0;entryPerimeter=0;" parent="1" source="f1oGqb4zI4XWdaLzHfpk-34" target="f1oGqb4zI4XWdaLzHfpk-31" edge="1">
          <mxGeometry width="160" relative="1" as="geometry">
            <mxPoint x="450" y="822" as="sourcePoint" />
            <mxPoint x="500" y="795" as="targetPoint" />
          </mxGeometry>
        </mxCell>
        <mxCell id="f1oGqb4zI4XWdaLzHfpk-33" value="&quot;extend&quot;" style="text;html=1;align=center;verticalAlign=middle;resizable=0;points=[];autosize=1;strokeColor=none;fillColor=none;" parent="1" vertex="1">
          <mxGeometry x="390" y="790" width="70" height="30" as="geometry" />
        </mxCell>
        <mxCell id="f1oGqb4zI4XWdaLzHfpk-34" value="Διαγραφή θέσης πρακτικής άσκησης" style="ellipse;whiteSpace=wrap;html=1;" parent="1" vertex="1">
          <mxGeometry x="450" y="790" width="110" height="70" as="geometry" />
        </mxCell>
        <mxCell id="f1oGqb4zI4XWdaLzHfpk-35" value="" style="endArrow=block;dashed=1;endFill=0;endSize=12;html=1;rounded=0;exitX=1;exitY=0;exitDx=0;exitDy=0;" parent="1" source="f1oGqb4zI4XWdaLzHfpk-31" target="f1oGqb4zI4XWdaLzHfpk-37" edge="1">
          <mxGeometry width="160" relative="1" as="geometry">
            <mxPoint x="460" y="834" as="sourcePoint" />
            <mxPoint x="430" y="750" as="targetPoint" />
          </mxGeometry>
        </mxCell>
        <mxCell id="f1oGqb4zI4XWdaLzHfpk-36" value="&quot;include&quot;" style="text;html=1;align=center;verticalAlign=middle;resizable=0;points=[];autosize=1;strokeColor=none;fillColor=none;rotation=-30;" parent="1" vertex="1">
          <mxGeometry x="350" y="750" width="70" height="30" as="geometry" />
        </mxCell>
        <mxCell id="f1oGqb4zI4XWdaLzHfpk-37" value="Δημιουργεία Θέσης" style="ellipse;whiteSpace=wrap;html=1;" parent="1" vertex="1">
          <mxGeometry x="425" y="690" width="95" height="70" as="geometry" />
        </mxCell>
        <mxCell id="f1oGqb4zI4XWdaLzHfpk-38" value="" style="endArrow=classic;html=1;rounded=0;entryX=0;entryY=0.5;entryDx=0;entryDy=0;" parent="1" source="f1oGqb4zI4XWdaLzHfpk-7" target="f1oGqb4zI4XWdaLzHfpk-39" edge="1">
          <mxGeometry width="50" height="50" relative="1" as="geometry">
            <mxPoint x="150" y="867" as="sourcePoint" />
            <mxPoint x="290" y="880" as="targetPoint" />
          </mxGeometry>
        </mxCell>
        <mxCell id="f1oGqb4zI4XWdaLzHfpk-39" value="Προβολή αναθετημένων θέσεων πρακτικής" style="ellipse;whiteSpace=wrap;html=1;" parent="1" vertex="1">
          <mxGeometry x="260" y="850" width="130" height="70" as="geometry" />
        </mxCell>
        <mxCell id="f1oGqb4zI4XWdaLzHfpk-40" value="" style="endArrow=block;dashed=1;endFill=0;endSize=12;html=1;rounded=0;exitX=0.005;exitY=0.423;exitDx=0;exitDy=0;exitPerimeter=0;" parent="1" source="f1oGqb4zI4XWdaLzHfpk-43" target="f1oGqb4zI4XWdaLzHfpk-39" edge="1">
          <mxGeometry width="160" relative="1" as="geometry">
            <mxPoint x="455" y="902" as="sourcePoint" />
            <mxPoint x="390" y="900" as="targetPoint" />
          </mxGeometry>
        </mxCell>
        <mxCell id="f1oGqb4zI4XWdaLzHfpk-41" value="&quot;extend&quot;" style="text;html=1;align=center;verticalAlign=middle;resizable=0;points=[];autosize=1;strokeColor=none;fillColor=none;" parent="1" vertex="1">
          <mxGeometry x="400" y="860" width="70" height="30" as="geometry" />
        </mxCell>
        <mxCell id="f1oGqb4zI4XWdaLzHfpk-43" value="Αξιολόγηση θέσης απο εταιρεία" style="ellipse;whiteSpace=wrap;html=1;" parent="1" vertex="1">
          <mxGeometry x="455" y="870" width="110" height="70" as="geometry" />
        </mxCell>
        <mxCell id="f1oGqb4zI4XWdaLzHfpk-50" value="" style="endArrow=classic;html=1;rounded=0;" parent="1" source="f1oGqb4zI4XWdaLzHfpk-4" target="f1oGqb4zI4XWdaLzHfpk-51" edge="1">
          <mxGeometry width="50" height="50" relative="1" as="geometry">
            <mxPoint x="684.6875" y="410" as="sourcePoint" />
            <mxPoint x="670" y="535" as="targetPoint" />
          </mxGeometry>
        </mxCell>
        <mxCell id="f1oGqb4zI4XWdaLzHfpk-51" value="Προβολή αναθετημένων θέσεων πρακτικής" style="ellipse;whiteSpace=wrap;html=1;" parent="1" vertex="1">
          <mxGeometry x="640" y="310" width="130" height="70" as="geometry" />
        </mxCell>
        <mxCell id="f1oGqb4zI4XWdaLzHfpk-52" value="" style="endArrow=block;dashed=1;endFill=0;endSize=12;html=1;rounded=0;" parent="1" source="f1oGqb4zI4XWdaLzHfpk-54" target="f1oGqb4zI4XWdaLzHfpk-51" edge="1">
          <mxGeometry width="160" relative="1" as="geometry">
            <mxPoint x="835" y="557" as="sourcePoint" />
            <mxPoint x="770" y="555" as="targetPoint" />
          </mxGeometry>
        </mxCell>
        <mxCell id="f1oGqb4zI4XWdaLzHfpk-53" value="&quot;extend&quot;" style="text;html=1;align=center;verticalAlign=middle;resizable=0;points=[];autosize=1;strokeColor=none;fillColor=none;" parent="1" vertex="1">
          <mxGeometry x="595" y="380" width="70" height="30" as="geometry" />
        </mxCell>
        <mxCell id="f1oGqb4zI4XWdaLzHfpk-54" value="Αξιολόγηση θέσης απο καθηγητή" style="ellipse;whiteSpace=wrap;html=1;" parent="1" vertex="1">
          <mxGeometry x="555" y="420" width="110" height="70" as="geometry" />
        </mxCell>
        <mxCell id="f1oGqb4zI4XWdaLzHfpk-55" value="" style="endArrow=classic;html=1;rounded=0;entryX=-0.017;entryY=0.36;entryDx=0;entryDy=0;entryPerimeter=0;" parent="1" source="f1oGqb4zI4XWdaLzHfpk-1" target="f1oGqb4zI4XWdaLzHfpk-56" edge="1">
          <mxGeometry width="50" height="50" relative="1" as="geometry">
            <mxPoint x="320" y="370" as="sourcePoint" />
            <mxPoint x="300" y="370" as="targetPoint" />
          </mxGeometry>
        </mxCell>
        <mxCell id="f1oGqb4zI4XWdaLzHfpk-56" value="Ενημέρωση Logbook" style="ellipse;whiteSpace=wrap;html=1;" parent="1" vertex="1">
          <mxGeometry x="260" y="300" width="100" height="70" as="geometry" />
        </mxCell>
        <mxCell id="f1oGqb4zI4XWdaLzHfpk-58" value="" style="endArrow=block;dashed=1;endFill=0;endSize=12;html=1;rounded=0;exitX=1;exitY=0.419;exitDx=0;exitDy=0;exitPerimeter=0;entryX=0;entryY=0.5;entryDx=0;entryDy=0;" parent="1" source="f1oGqb4zI4XWdaLzHfpk-56" target="f1oGqb4zI4XWdaLzHfpk-60" edge="1">
          <mxGeometry width="160" relative="1" as="geometry">
            <mxPoint x="349" y="376" as="sourcePoint" />
            <mxPoint x="460" y="350" as="targetPoint" />
          </mxGeometry>
        </mxCell>
        <mxCell id="f1oGqb4zI4XWdaLzHfpk-59" value="&quot;include&quot;" style="text;html=1;align=center;verticalAlign=middle;resizable=0;points=[];autosize=1;strokeColor=none;fillColor=none;rotation=0;" parent="1" vertex="1">
          <mxGeometry x="370" y="300" width="70" height="30" as="geometry" />
        </mxCell>
        <mxCell id="f1oGqb4zI4XWdaLzHfpk-60" value="Ιστορικό Αναρτήσεων" style="ellipse;whiteSpace=wrap;html=1;" parent="1" vertex="1">
          <mxGeometry x="455" y="295" width="100" height="70" as="geometry" />
        </mxCell>
        <mxCell id="f1oGqb4zI4XWdaLzHfpk-61" value="Υποβολή αίτησης σε δαιθέσιμη θέση πρακτικής" style="ellipse;whiteSpace=wrap;html=1;" parent="1" vertex="1">
          <mxGeometry x="70" y="440" width="130" height="70" as="geometry" />
        </mxCell>
        <mxCell id="f1oGqb4zI4XWdaLzHfpk-62" value="" style="endArrow=classic;html=1;rounded=0;entryX=0.5;entryY=0;entryDx=0;entryDy=0;exitX=1;exitY=1;exitDx=0;exitDy=0;exitPerimeter=0;" parent="1" source="f1oGqb4zI4XWdaLzHfpk-1" target="f1oGqb4zI4XWdaLzHfpk-61" edge="1">
          <mxGeometry width="50" height="50" relative="1" as="geometry">
            <mxPoint x="103" y="365" as="sourcePoint" />
            <mxPoint x="268" y="365" as="targetPoint" />
          </mxGeometry>
        </mxCell>
        <mxCell id="f1oGqb4zI4XWdaLzHfpk-63" value="" style="endArrow=block;dashed=1;endFill=0;endSize=12;html=1;rounded=0;entryX=1;entryY=0.5;entryDx=0;entryDy=0;" parent="1" source="f1oGqb4zI4XWdaLzHfpk-67" target="f1oGqb4zI4XWdaLzHfpk-61" edge="1">
          <mxGeometry width="160" relative="1" as="geometry">
            <mxPoint x="270" y="482" as="sourcePoint" />
            <mxPoint x="240" y="480" as="targetPoint" />
          </mxGeometry>
        </mxCell>
        <mxCell id="f1oGqb4zI4XWdaLzHfpk-64" value="&quot;extend&quot;" style="text;html=1;align=center;verticalAlign=middle;resizable=0;points=[];autosize=1;strokeColor=none;fillColor=none;rotation=15;" parent="1" vertex="1">
          <mxGeometry x="205" y="460" width="70" height="30" as="geometry" />
        </mxCell>
        <mxCell id="f1oGqb4zI4XWdaLzHfpk-67" value="Προβολή όλων των αιτήσεων" style="ellipse;whiteSpace=wrap;html=1;" parent="1" vertex="1">
          <mxGeometry x="270" y="470" width="100" height="60" as="geometry" />
        </mxCell>
        <mxCell id="f1oGqb4zI4XWdaLzHfpk-68" value="" style="endArrow=classic;html=1;rounded=0;entryX=0;entryY=0.5;entryDx=0;entryDy=0;" parent="1" target="f1oGqb4zI4XWdaLzHfpk-69" edge="1">
          <mxGeometry width="50" height="50" relative="1" as="geometry">
            <mxPoint x="45" y="280" as="sourcePoint" />
            <mxPoint x="260" y="380" as="targetPoint" />
          </mxGeometry>
        </mxCell>
        <mxCell id="f1oGqb4zI4XWdaLzHfpk-69" value="Παρακολούθηση τελικής βαθμολογίας" style="ellipse;whiteSpace=wrap;html=1;" parent="1" vertex="1">
          <mxGeometry x="410" y="400" width="115" height="70" as="geometry" />
        </mxCell>
        <mxCell id="f1oGqb4zI4XWdaLzHfpk-70" value="" style="endArrow=classic;html=1;rounded=0;" parent="1" source="f1oGqb4zI4XWdaLzHfpk-8" target="f1oGqb4zI4XWdaLzHfpk-71" edge="1">
          <mxGeometry width="50" height="50" relative="1" as="geometry">
            <mxPoint x="640" y="850" as="sourcePoint" />
            <mxPoint x="680" y="910" as="targetPoint" />
          </mxGeometry>
        </mxCell>
        <mxCell id="f1oGqb4zI4XWdaLzHfpk-71" value="&lt;div&gt;Ανάθεση κατάλληλης θέσης σε φοιτητή&lt;/div&gt;" style="ellipse;whiteSpace=wrap;html=1;" parent="1" vertex="1">
          <mxGeometry x="710" y="860" width="110" height="70" as="geometry" />
        </mxCell>
        <mxCell id="f1oGqb4zI4XWdaLzHfpk-72" value="" style="endArrow=block;dashed=1;endFill=0;endSize=12;html=1;rounded=0;" parent="1" source="f1oGqb4zI4XWdaLzHfpk-71" target="f1oGqb4zI4XWdaLzHfpk-76" edge="1">
          <mxGeometry width="160" relative="1" as="geometry">
            <mxPoint x="680" y="891" as="sourcePoint" />
            <mxPoint x="760" y="830" as="targetPoint" />
          </mxGeometry>
        </mxCell>
        <mxCell id="f1oGqb4zI4XWdaLzHfpk-76" value="Αναζήτηση κατάλληλης θέσης πρακτικής για φοιτητή." style="ellipse;whiteSpace=wrap;html=1;" parent="1" vertex="1">
          <mxGeometry x="565" y="800" width="110" height="70" as="geometry" />
        </mxCell>
        <mxCell id="f1oGqb4zI4XWdaLzHfpk-79" value="&lt;div&gt;Ανάθεση επιβλέποντα καθηγητή σε αναθετημένη θέση&lt;/div&gt;" style="ellipse;whiteSpace=wrap;html=1;" parent="1" vertex="1">
          <mxGeometry x="695" y="780" width="140" height="70" as="geometry" />
        </mxCell>
        <mxCell id="f1oGqb4zI4XWdaLzHfpk-83" value="&quot;include&quot;" style="text;html=1;align=center;verticalAlign=middle;resizable=0;points=[];autosize=1;strokeColor=none;fillColor=none;rotation=25;" parent="1" vertex="1">
          <mxGeometry x="675" y="840" width="70" height="30" as="geometry" />
        </mxCell>
        <mxCell id="f1oGqb4zI4XWdaLzHfpk-84" value="" style="endArrow=classic;html=1;rounded=0;" parent="1" source="f1oGqb4zI4XWdaLzHfpk-8" target="f1oGqb4zI4XWdaLzHfpk-79" edge="1">
          <mxGeometry width="50" height="50" relative="1" as="geometry">
            <mxPoint x="870" y="889" as="sourcePoint" />
            <mxPoint x="800" y="891" as="targetPoint" />
          </mxGeometry>
        </mxCell>
        <mxCell id="f1oGqb4zI4XWdaLzHfpk-85" value="" style="endArrow=block;dashed=1;endFill=0;endSize=12;html=1;rounded=0;" parent="1" source="f1oGqb4zI4XWdaLzHfpk-79" target="f1oGqb4zI4XWdaLzHfpk-88" edge="1">
          <mxGeometry width="160" relative="1" as="geometry">
            <mxPoint x="740" y="830" as="sourcePoint" />
            <mxPoint x="704" y="811" as="targetPoint" />
          </mxGeometry>
        </mxCell>
        <mxCell id="f1oGqb4zI4XWdaLzHfpk-86" value="&quot;include&quot;" style="text;html=1;align=center;verticalAlign=middle;resizable=0;points=[];autosize=1;strokeColor=none;fillColor=none;rotation=25;" parent="1" vertex="1">
          <mxGeometry x="660" y="760" width="70" height="30" as="geometry" />
        </mxCell>
        <mxCell id="f1oGqb4zI4XWdaLzHfpk-88" value="Αυτόματη ανάθεση καθηγητή με την αναζήτηση" style="ellipse;whiteSpace=wrap;html=1;" parent="1" vertex="1">
          <mxGeometry x="540" y="720" width="120" height="70" as="geometry" />
        </mxCell>
        <mxCell id="f1oGqb4zI4XWdaLzHfpk-89" value="" style="endArrow=classic;html=1;rounded=0;entryX=1;entryY=1;entryDx=0;entryDy=0;exitX=0.5;exitY=0;exitDx=0;exitDy=0;exitPerimeter=0;" parent="1" source="f1oGqb4zI4XWdaLzHfpk-8" target="f1oGqb4zI4XWdaLzHfpk-90" edge="1">
          <mxGeometry width="50" height="50" relative="1" as="geometry">
            <mxPoint x="880" y="890" as="sourcePoint" />
            <mxPoint x="850" y="790" as="targetPoint" />
            <Array as="points" />
          </mxGeometry>
        </mxCell>
        <mxCell id="f1oGqb4zI4XWdaLzHfpk-90" value="Παρακολούθηση βαθμολογιών θέσεων πρακτικής άσκησης" style="ellipse;whiteSpace=wrap;html=1;" parent="1" vertex="1">
          <mxGeometry x="700" y="690" width="140" height="70" as="geometry" />
        </mxCell>
        <mxCell id="f1oGqb4zI4XWdaLzHfpk-91" value="" style="endArrow=block;dashed=1;endFill=0;endSize=12;html=1;rounded=0;" parent="1" source="f1oGqb4zI4XWdaLzHfpk-92" target="f1oGqb4zI4XWdaLzHfpk-90" edge="1">
          <mxGeometry width="160" relative="1" as="geometry">
            <mxPoint x="630" y="710" as="sourcePoint" />
            <mxPoint x="750" y="700" as="targetPoint" />
          </mxGeometry>
        </mxCell>
        <mxCell id="f1oGqb4zI4XWdaLzHfpk-92" value="Προβολή logbook φοιτητή" style="ellipse;whiteSpace=wrap;html=1;" parent="1" vertex="1">
          <mxGeometry x="550" y="640" width="110" height="70" as="geometry" />
        </mxCell>
        <mxCell id="f1oGqb4zI4XWdaLzHfpk-93" value="" style="endArrow=block;dashed=1;endFill=0;endSize=12;html=1;rounded=0;exitX=1;exitY=1;exitDx=0;exitDy=0;" parent="1" source="f1oGqb4zI4XWdaLzHfpk-94" target="f1oGqb4zI4XWdaLzHfpk-90" edge="1">
          <mxGeometry width="160" relative="1" as="geometry">
            <mxPoint x="690" y="680" as="sourcePoint" />
            <mxPoint x="752" y="719" as="targetPoint" />
          </mxGeometry>
        </mxCell>
        <mxCell id="f1oGqb4zI4XWdaLzHfpk-94" value="Ειδοποίση email για υπενθύμιση καταχώρησης βαθμολογίας" style="ellipse;whiteSpace=wrap;html=1;" parent="1" vertex="1">
          <mxGeometry x="605" y="560" width="150" height="70" as="geometry" />
        </mxCell>
        <mxCell id="f1oGqb4zI4XWdaLzHfpk-95" value="&quot;extend&quot;" style="text;html=1;align=center;verticalAlign=middle;resizable=0;points=[];autosize=1;strokeColor=none;fillColor=none;rotation=60;" parent="1" vertex="1">
          <mxGeometry x="720" y="625" width="70" height="30" as="geometry" />
        </mxCell>
        <mxCell id="f1oGqb4zI4XWdaLzHfpk-96" value="&quot;extend&quot;" style="text;html=1;align=center;verticalAlign=middle;resizable=0;points=[];autosize=1;strokeColor=none;fillColor=none;rotation=15;" parent="1" vertex="1">
          <mxGeometry x="660" y="670" width="70" height="30" as="geometry" />
        </mxCell>
        <mxCell id="f1oGqb4zI4XWdaLzHfpk-99" value="" style="endArrow=classic;html=1;rounded=0;exitX=0.5;exitY=0;exitDx=0;exitDy=0;exitPerimeter=0;entryX=0.689;entryY=1.014;entryDx=0;entryDy=0;entryPerimeter=0;" parent="1" source="f1oGqb4zI4XWdaLzHfpk-8" target="f1oGqb4zI4XWdaLzHfpk-100" edge="1">
          <mxGeometry width="50" height="50" relative="1" as="geometry">
            <mxPoint x="890" y="900" as="sourcePoint" />
            <mxPoint x="870" y="660" as="targetPoint" />
            <Array as="points" />
          </mxGeometry>
        </mxCell>
        <mxCell id="f1oGqb4zI4XWdaLzHfpk-100" value="Ολοκλήρωση θέσης πρακτικής άσκησης" style="ellipse;whiteSpace=wrap;html=1;" parent="1" vertex="1">
          <mxGeometry x="700" y="460" width="150" height="70" as="geometry" />
        </mxCell>
        <mxCell id="uHQfOrBDiOWIp-ql9qGd-3" value="System" style="swimlane;whiteSpace=wrap;html=1;" vertex="1" parent="1">
          <mxGeometry x="70" y="220" width="790" height="760" as="geometry" />
        </mxCell>
      </root>
    </mxGraphModel>
  </diagram>
</mxfile>
